<?xml version="1.0" encoding="UTF-8"?>
<svg xmlns="http://www.w3.org/2000/svg" xmlns:xlink="http://www.w3.org/1999/xlink" version="1.1" width="2345px" height="418px" style="shape-rendering:geometricPrecision; text-rendering:geometricPrecision; image-rendering:optimizeQuality; fill-rule:evenodd; clip-rule:evenodd">
  <g>
    <path style="opacity:0.982" fill="#0049ad" d="M 22.5,10.5 C 42.5028,10.3334 62.5028,10.5 82.5,11C 84.3333,12.1667 86.1667,13.3333 88,14.5C 95.1945,39.0868 102.194,63.7534 109,88.5C 122.034,143.305 135.701,197.971 150,252.5C 170.861,205.583 191.528,158.583 212,111.5C 213.211,108.241 215.044,105.408 217.5,103C 223.388,101.424 229.388,101.091 235.5,102C 236.5,102.833 237.5,103.667 238.5,104.5C 260.608,153.716 282.441,203.049 304,252.5C 316.18,204.779 328.513,157.113 341,109.5C 342.579,107.959 344.413,106.792 346.5,106C 365.167,105.333 383.833,105.333 402.5,106C 406.987,107.3 408.987,110.3 408.5,115C 382.238,210.212 355.738,305.379 329,400.5C 328.394,403.548 326.894,406.048 324.5,408C 319.282,409.563 313.949,409.896 308.5,409C 306.376,407.878 304.543,406.378 303,404.5C 277.667,347.833 252.333,291.167 227,234.5C 201.135,290.9 175.801,347.567 151,404.5C 147.913,408.792 143.746,410.458 138.5,409.5C 133.879,410.244 130.046,408.91 127,405.5C 101.599,317.294 76.5986,228.961 52,140.5C 40.5115,102.879 29.1782,65.2126 18,27.5C 17.3333,23.1667 17.3333,18.8333 18,14.5C 19.3968,12.9297 20.8968,11.5964 22.5,10.5 Z"></path>
  </g>
  <g>
    <path style="opacity:0.985" fill="#0049ad" d="M 1122.5,101.5 C 1168.6,97.5883 1208.44,111.255 1242,142.5C 1244,146.5 1244,150.5 1242,154.5C 1230.2,167.304 1218.03,179.804 1205.5,192C 1202.5,192.667 1199.5,192.667 1196.5,192C 1167.8,167.299 1136.13,162.632 1101.5,178C 1066.24,200.701 1052.41,232.867 1060,274.5C 1069.16,308.663 1091,329.496 1125.5,337C 1140.13,339.116 1154.46,337.782 1168.5,333C 1179.75,327.795 1190.58,321.962 1201,315.5C 1203.25,316.137 1205.41,316.97 1207.5,318C 1219.7,330.533 1231.53,343.366 1243,356.5C 1243.82,359.964 1243.48,363.298 1242,366.5C 1208.54,399.102 1168.37,413.268 1121.5,409C 1067.69,402.474 1027.19,375.974 1000,329.5C 974.842,278.836 975.509,228.503 1002,178.5C 1029.78,133.568 1069.95,107.901 1122.5,101.5 Z"></path>
  </g>
  <g>
    <path style="opacity:0.986" fill="#0049ad" d="M 2182.5,101.5 C 2191.31,99.3209 2197.47,102.321 2201,110.5C 2244.67,204.5 2288.33,298.5 2332,392.5C 2333.56,398.201 2331.73,402.367 2326.5,405C 2307.83,405.667 2289.17,405.667 2270.5,405C 2265.82,403.65 2262.32,400.817 2260,396.5C 2255.11,385.048 2249.94,373.714 2244.5,362.5C 2206.83,361.167 2169.17,361.167 2131.5,362.5C 2126.1,374.542 2120.6,386.542 2115,398.5C 2113.06,401.106 2110.56,402.939 2107.5,404C 2088.57,405.628 2069.57,405.962 2050.5,405C 2044.53,402.897 2042.36,398.73 2044,392.5C 2088.33,297.167 2132.67,201.833 2177,106.5C 2178.73,104.598 2180.56,102.931 2182.5,101.5 Z M 2187.5,237.5 C 2197.96,258.083 2207.62,279.083 2216.5,300.5C 2197.5,300.5 2178.5,300.5 2159.5,300.5C 2168.56,279.388 2177.89,258.388 2187.5,237.5 Z"></path>
  </g>
  <g>
    <path style="opacity:0.989" fill="#0049ad" d="M 471.5,105.5 C 532.168,105.333 592.834,105.5 653.5,106C 657,106.833 659.167,109 660,112.5C 660.667,129.833 660.667,147.167 660,164.5C 659.208,166.587 658.041,168.421 656.5,170C 616.252,171.488 575.919,171.988 535.5,171.5C 535.5,187.833 535.5,204.167 535.5,220.5C 568.168,220.333 600.835,220.5 633.5,221C 636,222.167 637.833,224 639,226.5C 639.667,244.167 639.667,261.833 639,279.5C 638.027,283.406 635.527,285.573 631.5,286C 599.502,286.5 567.502,286.667 535.5,286.5C 535.5,304.167 535.5,321.833 535.5,339.5C 575.168,339.333 614.835,339.5 654.5,340C 657.381,341.251 659.214,343.417 660,346.5C 660.667,363.833 660.667,381.167 660,398.5C 659.167,402 657,404.167 653.5,405C 592.833,405.667 532.167,405.667 471.5,405C 469.714,404.215 468.214,403.049 467,401.5C 465.338,304.914 465.005,208.248 466,111.5C 467.36,108.977 469.193,106.977 471.5,105.5 Z"></path>
  </g>
  <g>
    <path style="opacity:0.986" fill="#0049ad" d="M 735.5,105.5 C 772.835,105.333 810.168,105.5 847.5,106C 883.206,109.247 909.04,126.747 925,158.5C 936.195,190.217 929.029,217.051 903.5,239C 897.345,243.911 891.011,248.577 884.5,253C 903.496,260.907 918.663,273.407 930,290.5C 946.05,334.35 934.217,368.517 894.5,393C 881.606,399.631 867.939,403.631 853.5,405C 814.167,405.667 774.833,405.667 735.5,405C 732,404.167 729.833,402 729,398.5C 728.333,303.167 728.333,207.833 729,112.5C 730.018,108.985 732.185,106.652 735.5,105.5 Z M 798.5,170.5 C 812.226,170.073 825.893,170.573 839.5,172C 855.228,179.628 860.395,191.794 855,208.5C 851.77,216.063 846.27,221.229 838.5,224C 825.227,225.425 811.894,225.925 798.5,225.5C 798.5,207.167 798.5,188.833 798.5,170.5 Z M 798.5,284.5 C 811.171,284.333 823.838,284.5 836.5,285C 854.84,288.975 863.673,300.141 863,318.5C 859.067,331.766 850.234,339.266 836.5,341C 823.838,341.5 811.171,341.667 798.5,341.5C 798.5,322.5 798.5,303.5 798.5,284.5 Z"></path>
  </g>
  <g>
    <path style="opacity:0.988" fill="#0049ad" d="M 1310.5,105.5 C 1356.83,105.333 1403.17,105.5 1449.5,106C 1492.59,112.418 1520.09,136.585 1532,178.5C 1538.97,214.251 1528.81,244.084 1501.5,268C 1492.48,274.51 1483.14,280.51 1473.5,286C 1492.2,321.23 1511.03,356.397 1530,391.5C 1531.37,396.437 1530.2,400.604 1526.5,404C 1515.26,405.146 1503.93,405.646 1492.5,405.5C 1481.07,405.646 1469.74,405.146 1458.5,404C 1438.62,366.402 1419.12,328.568 1400,290.5C 1391.25,289.516 1382.42,289.183 1373.5,289.5C 1373.99,326.919 1373.49,364.253 1372,401.5C 1370.79,403.049 1369.29,404.215 1367.5,405C 1348.5,405.667 1329.5,405.667 1310.5,405C 1307,404.167 1304.83,402 1304,398.5C 1303.33,303.167 1303.33,207.833 1304,112.5C 1305.02,108.985 1307.18,106.652 1310.5,105.5 Z M 1373.5,169.5 C 1394.5,169.333 1415.5,169.5 1436.5,170C 1458.51,174.854 1467.35,188.354 1463,210.5C 1458.58,221.956 1450.42,229.122 1438.5,232C 1416.84,232.5 1395.17,232.667 1373.5,232.5C 1373.5,211.5 1373.5,190.5 1373.5,169.5 Z"></path>
  </g>
  <g>
    <path style="opacity:0.987" fill="#0049ad" d="M 1609.5,105.5 C 1670.17,105.333 1730.83,105.5 1791.5,106C 1793.29,106.785 1794.79,107.951 1796,109.5C 1797.64,128.076 1797.97,146.743 1797,165.5C 1796.22,167.286 1795.05,168.786 1793.5,170C 1753.25,171.488 1712.92,171.988 1672.5,171.5C 1672.5,187.833 1672.5,204.167 1672.5,220.5C 1705.5,220.333 1738.5,220.5 1771.5,221C 1773.67,221.833 1775.17,223.333 1776,225.5C 1776.67,243.833 1776.67,262.167 1776,280.5C 1774.75,283.381 1772.58,285.214 1769.5,286C 1737.17,286.5 1704.84,286.667 1672.5,286.5C 1672.5,304.167 1672.5,321.833 1672.5,339.5C 1712.17,339.333 1751.83,339.5 1791.5,340C 1794,341.167 1795.83,343 1797,345.5C 1797.67,363.5 1797.67,381.5 1797,399.5C 1795.83,402 1794,403.833 1791.5,405C 1730.83,405.667 1670.17,405.667 1609.5,405C 1606,404.167 1603.83,402 1603,398.5C 1602.33,303.167 1602.33,207.833 1603,112.5C 1604.02,108.985 1606.18,106.652 1609.5,105.5 Z"></path>
  </g>
  <g>
    <path style="opacity:0.984" fill="#0049ad" d="M 1842.5,105.5 C 1908.22,105.01 1973.89,105.51 2039.5,107C 2041.05,108.214 2042.22,109.714 2043,111.5C 2043.97,130.257 2043.64,148.924 2042,167.5C 2040.79,169.049 2039.29,170.215 2037.5,171C 2016.84,171.5 1996.17,171.667 1975.5,171.5C 1975.67,246.501 1975.5,321.501 1975,396.5C 1974.37,400.467 1972.2,403.301 1968.5,405C 1949.5,405.667 1930.5,405.667 1911.5,405C 1908.42,404.214 1906.25,402.381 1905,399.5C 1904.5,323.501 1904.33,247.501 1904.5,171.5C 1883.83,171.667 1863.16,171.5 1842.5,171C 1838.59,170.027 1836.43,167.527 1836,163.5C 1835.33,146.833 1835.33,130.167 1836,113.5C 1837.28,110.062 1839.44,107.395 1842.5,105.5 Z"></path>
  </g>
  <g>
    <path style="opacity:0.977" fill="#0049ad" d="M 1134.5,211.5 C 1163.16,211.159 1179.49,225.159 1183.5,253.5C 1182.56,269.23 1175.56,281.397 1162.5,290C 1139.28,300.571 1120.12,295.738 1105,275.5C 1094.08,252.611 1098.58,233.444 1118.5,218C 1123.61,214.935 1128.94,212.769 1134.5,211.5 Z"></path>
  </g>
</svg>
